<svg width="54" height="54" viewBox="0 0 54 54" fill="none" xmlns="http://www.w3.org/2000/svg">
<path d="M31.2188 5.0625H32.9062V6.75H31.2188V5.0625Z" fill="#66CABE"/>
<path d="M17.7188 27.8438H21.0938V29.5312H17.7188V27.8438Z" fill="#66CABE"/>
<path d="M36.2812 1.6875H17.7188C16.3765 1.68884 15.0896 2.22264 14.1405 3.17175C13.1914 4.12086 12.6576 5.40775 12.6562 6.75V47.25C12.6576 48.5922 13.1914 49.8791 14.1405 50.8282C15.0896 51.7774 16.3765 52.3112 17.7188 52.3125H36.2812C37.6235 52.3112 38.9104 51.7774 39.8595 50.8282C40.8086 49.8791 41.3424 48.5922 41.3438 47.25V6.75C41.3424 5.40775 40.8086 4.12086 39.8595 3.17175C38.9104 2.22264 37.6235 1.68884 36.2812 1.6875ZM36.2812 50.625H17.7188C16.8236 50.625 15.9652 50.2694 15.3323 49.6365C14.6993 49.0035 14.3438 48.1451 14.3438 47.25V10.125H37.9688V8.4375H14.3438V6.75C14.3438 5.85489 14.6993 4.99645 15.3323 4.36351C15.9652 3.73058 16.8236 3.375 17.7188 3.375H36.2812C37.1764 3.375 38.0348 3.73058 38.6677 4.36351C39.3007 4.99645 39.6562 5.85489 39.6562 6.75V42.1875H16.0312V43.875H39.6562V47.25C39.6562 48.1451 39.3007 49.0035 38.6677 49.6365C38.0348 50.2694 37.1764 50.625 36.2812 50.625Z" fill="#66CABE"/>
<path d="M27 44.7188C26.4994 44.7188 26.01 44.8672 25.5937 45.1453C25.1775 45.4235 24.853 45.8188 24.6614 46.2813C24.4698 46.7439 24.4197 47.2528 24.5174 47.7438C24.6151 48.2348 24.8561 48.6859 25.2101 49.0399C25.5641 49.3939 26.0152 49.6349 26.5062 49.7326C26.9972 49.8303 27.5061 49.7802 27.9687 49.5886C28.4312 49.397 28.8265 49.0725 29.1047 48.6563C29.3828 48.24 29.5313 47.7506 29.5313 47.25C29.5313 46.5787 29.2646 45.9348 28.7899 45.4601C28.3152 44.9854 27.6713 44.7188 27 44.7188ZM27 48.0938C26.8331 48.0938 26.67 48.0443 26.5312 47.9516C26.3925 47.8588 26.2843 47.7271 26.2205 47.5729C26.1566 47.4187 26.1399 47.2491 26.1725 47.0854C26.205 46.9217 26.2854 46.7714 26.4034 46.6534C26.5214 46.5354 26.6717 46.455 26.8354 46.4225C26.9991 46.3899 27.1687 46.4066 27.3229 46.4705C27.4771 46.5343 27.6088 46.6425 27.7016 46.7812C27.7943 46.92 27.8438 47.0831 27.8438 47.25C27.8438 47.4738 27.7549 47.6884 27.5966 47.8466C27.4384 48.0049 27.2238 48.0938 27 48.0938Z" fill="#66CABE"/>
<path d="M24.4688 5.0625H29.5312V6.75H24.4688V5.0625Z" fill="#66CABE"/>
<path d="M23.3775 22.1847L20.599 19.4062L23.3775 16.6278L22.1844 15.4347L18.2129 19.4062L22.1844 23.3778L23.3775 22.1847Z" fill="#66CABE"/>
<path d="M31.8153 23.3778L35.7868 19.4063L31.8153 15.4347L30.6222 16.6278L33.4007 19.4063L30.6222 22.1847L31.8153 23.3778Z" fill="#66CABE"/>
<path d="M23.793 22.9568L28.361 15.0449L29.8224 15.8887L25.2543 23.8005L23.793 22.9568Z" fill="#66CABE"/>
<path d="M22.7812 27.8438H36.2812V29.5312H22.7812V27.8438Z" fill="#66CABE"/>
<path d="M17.7188 31.2188H36.2812V32.9062H17.7188V31.2188Z" fill="#66CABE"/>
<path d="M17.7188 34.5938H36.2812V36.2812H17.7188V34.5938Z" fill="#66CABE"/>
</svg>
