<svg width="218" height="45" viewBox="0 0 218 45" fill="none" xmlns="http://www.w3.org/2000/svg">
<g clip-path="url(#clip0_2901_11131)">
<path fill-rule="evenodd" clip-rule="evenodd" d="M146.392 24.0266C146.301 29.0456 147.385 31.704 151.523 31.704C155.653 31.704 156.246 27.1756 156.246 23.7295C156.246 20.2813 155.462 16.9338 151.123 16.9338C148.46 16.9338 146.495 19.0025 146.392 24.0266ZM138.022 45V11.0264H146.495V12.4045C146.495 14.2427 147.236 13.4847 147.833 12.7683C147.933 12.6486 149.822 10.3373 154.074 10.3373C158.314 10.3373 164.91 13.2907 164.91 23.7296C164.91 31.8041 160.975 37.7115 154.179 37.7115C150.434 37.7115 148.269 36.2371 147.774 35.6421C147.278 35.0553 146.59 34.9529 146.59 35.6421V44.9999L138.022 45ZM72.537 0H81.6956V24.0266C81.6956 28.1595 79.921 36.8276 67.2201 36.8276C54.5177 36.8276 53.1396 28.7485 53.1396 24.2222V19.7916H62.0026V24.1222C62.0026 26.7806 63.7756 29.2412 67.1216 29.2412C70.4691 29.2412 72.537 27.3711 72.537 24.2222V0ZM100.849 20.3821C100.849 17.9177 99.4731 15.5548 96.3219 15.5548C93.2693 15.5548 92.1853 17.7191 92.1853 20.3821H100.849ZM95.4387 10.0417C102.631 10.0417 108.93 12.7979 108.93 25.501H91.8964C91.8964 29.5384 93.5687 31.2128 96.5227 31.2128C99.4775 31.2128 100.462 28.8477 100.462 28.8477H108.834C108.834 32.4924 103.811 37.4159 96.2271 37.3181C87.5642 37.3181 83.3292 30.9172 83.3292 24.3193C83.3292 17.7191 87.0685 10.0417 95.4387 10.0417ZM128.08 20.3821C128.08 17.9177 126.702 15.5548 123.551 15.5548C120.5 15.5548 119.414 17.7191 119.414 20.3821H128.08ZM122.67 10.0417C129.861 10.0417 136.159 12.7979 136.159 25.501H119.126C119.126 29.5384 120.8 31.2128 123.756 31.2128C126.708 31.2128 127.693 28.8477 127.693 28.8477H136.066C136.066 32.4924 131.042 37.4159 123.46 37.3181C114.793 37.3181 110.558 30.9172 110.558 24.3193C110.558 17.7191 114.302 10.0417 122.67 10.0417Z" fill="white"/>
</g>
<defs>
<clipPath id="clip0_2901_11131">
<rect width="217.771" height="45" fill="white" transform="translate(0.139648)"/>
</clipPath>
</defs>
</svg>
