<svg width="256" height="45" viewBox="0 0 256 45" fill="none" xmlns="http://www.w3.org/2000/svg">
<g clip-path="url(#clip0_1906_7080)">
<path d="M192.677 10.8028C195.519 10.8028 197.82 9.9517 197.82 8.90142C197.82 7.85188 195.519 7 192.677 7C189.836 7 187.533 7.85114 187.533 8.90142C187.533 9.95096 189.836 10.8028 192.677 10.8028Z" fill="#FEFEFA"/>
<path fill-rule="evenodd" clip-rule="evenodd" d="M161.722 32.3602V20.3616C161.722 18.5214 161.641 16.6023 159.692 15.2422C157.841 13.9492 154.889 13.9581 153.556 13.9621C153.487 13.9624 153.422 13.9625 153.362 13.9625C152.145 13.9625 148.087 13.9625 146.22 16.0424C144.563 17.8889 144.632 19.672 144.669 20.6084C144.673 20.7268 144.677 20.8317 144.677 20.9214H149.994C149.994 20.9214 150.358 18.202 151.089 17.4822C151.824 16.7579 153.768 15.9621 155.269 17.2417C155.821 17.7138 156.039 18.3215 156.039 19.0015V22.4408C156.039 22.7616 155.714 23.241 155.309 23.241C155.309 23.241 147.923 23.4011 146.625 24.3614C146.558 24.4107 146.492 24.4591 146.427 24.5072L146.425 24.508C145.213 25.3948 144.19 26.143 144.19 29.4807C144.19 32.9996 145.083 34.3597 146.139 35.0803C146.257 35.1606 146.367 35.242 146.478 35.3232C147.356 35.9689 148.216 36.6004 152.469 36.6004H163.831V34.28C162.858 34.28 161.722 33.4805 161.722 32.3602ZM155.473 34.1996C155.716 34.1996 156.04 33.9201 156.04 33.7202V27.1995C156.04 26.5195 155.797 25.4802 154.539 25.4802L154.444 25.4801C153.129 25.4782 150.117 25.4737 150.117 28.3995V31.4795C150.117 32.5202 150.684 34.1996 152.673 34.1996H155.473Z" fill="#FEFEFA"/>
<path fill-rule="evenodd" clip-rule="evenodd" d="M96.6325 29.8805H90.9513V32.0408C90.9513 32.92 90.7889 34.7609 88.1107 34.7609C85.4325 34.7609 84.6213 33.0004 84.6213 31.7207V27.1611C84.6213 26.7614 84.9461 26.2008 85.514 26.2008H96.6325V20.3616C96.6325 17.7219 96.0645 16.9216 94.9279 15.802C93.7919 14.6817 89.8146 14.3623 88.0291 14.3623C83.4846 14.3623 82.0232 15.0018 80.7249 16.0417C79.4265 17.0817 78.9393 19.2412 78.9393 20.841V29.8798C78.9393 32.279 79.4265 33.9592 80.968 35.4793C82.5095 36.9994 87.2172 36.9994 88.1915 36.9994L88.3185 36.9997C89.4223 37.003 92.505 37.0122 94.7654 35.3996C97.1196 33.7202 96.6325 29.8805 96.6325 29.8805ZM87.8675 16.7623C85.0269 16.7623 84.6213 18.6822 84.6213 19.9618V22.9216C84.6213 23.4011 85.1084 23.8008 85.5948 23.8008H89.9777C90.5457 23.8008 90.9513 23.3207 90.9513 22.8412V19.9618C90.9513 18.8422 90.7081 16.7623 87.8675 16.7623Z" fill="#FEFEFA"/>
<path d="M108.141 15.0018C108.141 15.642 108.952 16.2814 109.439 16.4415C110.007 16.0417 113.01 14.3623 115.364 14.3623C117.717 14.3623 118.935 15.5616 118.935 17.4018V26.2008H113.254V19.402C113.254 18.5221 113.01 17.8819 112.199 17.8023C111.387 17.7226 109.277 19.402 108.709 20.2023V32.3609C108.709 33.4813 109.846 34.2808 110.819 34.2808V36.6011H100.918V34.2011C101.892 34.2011 102.947 33.881 103.028 32.4413V18.9211C103.028 18.5214 102.379 17.401 100.918 17.401V15.0018H108.141Z" fill="#FEFEFA"/>
<path d="M131.351 16.4415C130.865 16.2814 130.054 15.642 130.054 15.0018H122.831V17.401C124.292 17.401 124.941 18.5214 124.941 18.9211V32.4413C124.86 33.881 123.805 34.2011 122.831 34.2011V36.6011H132.732V34.2808C131.758 34.2808 130.622 33.4813 130.622 32.3609V20.2023C131.189 19.402 133.299 17.7226 134.11 17.8023C134.923 17.8819 135.165 18.5221 135.165 19.402V26.2008H140.847V17.4018C140.847 15.5616 139.63 14.3623 137.276 14.3623C134.923 14.3623 131.92 16.0417 131.351 16.4415Z" fill="#FEFEFA"/>
<path d="M188.1 15.0018H198V17.4018C196.945 17.4018 195.89 18.1216 195.89 19.0812V32.3602C195.89 33.4805 197.026 34.28 198 34.28V36.6004H188.1V34.2004C189.073 34.2004 190.128 33.8803 190.209 32.4406V18.9219C190.209 18.5214 189.56 17.4018 188.1 17.4018V15.0018Z" fill="#FEFEFA"/>
<path d="M175.275 16.4415C174.789 16.2814 173.976 15.642 173.976 15.0018H166.753V17.401C168.214 17.401 168.863 18.5214 168.863 18.9211V32.4413C168.783 33.881 167.728 34.2011 166.753 34.2011V36.6011H176.654V34.2808C175.68 34.2808 174.544 33.4813 174.544 32.3609V20.2023C175.113 19.402 177.223 17.7226 178.034 17.8023C178.845 17.8819 179.089 18.5221 179.089 19.402V26.2008H184.771V17.4018C184.771 15.5616 183.554 14.3623 181.2 14.3623C178.845 14.3623 175.844 16.0417 175.275 16.4415Z" fill="#FEFEFA"/>
<path d="M58 33.7202V36.5996H72.2037V33.7202H70.7423C68.6321 33.7202 67.7393 32.3609 67.7393 31.6403V24.9212C67.7393 23.6408 68.5512 23.3214 69.5255 23.4011C70.7386 23.5006 71.6351 24.8408 71.6351 25.641H74.0701V16.7616H71.6351C71.6351 19.4013 69.9311 19.4809 69.444 19.4809C68.9568 19.4809 67.9833 19.2412 67.7393 18.6018V13.1623C67.7393 11.0824 69.1192 10.8427 70.1743 10.8427H185.047V7.163H60.1918L58.0816 10.8427H59.9479C61.9766 10.8427 62.0581 13.3223 62.0581 14.3623V31.6403C62.0581 33.5602 60.4343 33.7202 59.6231 33.7202H58Z" fill="#FEFEFA"/>
</g>
<defs>
<clipPath id="clip0_1906_7080">
<rect width="256" height="45" fill="white"/>
</clipPath>
</defs>
</svg>
