<svg width="256" height="45" viewBox="0 0 256 45" fill="none" xmlns="http://www.w3.org/2000/svg">
<g clip-path="url(#clip0_2901_11143)">
<path d="M146.57 25.7423C147.95 24.054 149.638 22.9031 150.982 23.0564C152.629 23.2478 152.784 24.8597 151.978 26.3552L152.4 26.471C152.4 26.471 151.096 28.6577 149.754 30.0006C147.376 32.4169 145.841 31.6113 145.496 31.3429C145.15 31.0746 144.882 30.1157 145.035 29.1562C145.15 28.1973 145.879 26.5861 146.57 25.7423Z" fill="#FEFEFA"/>
<path fill-rule="evenodd" clip-rule="evenodd" d="M73.1433 22.5191C73.1439 32.801 97.8873 41.1257 128.5 41.1257C159.075 41.1257 183.895 32.801 183.895 22.5191C183.895 12.2766 159.075 3.95189 128.5 3.95189C97.8873 3.95189 73.1433 12.2766 73.1433 22.5191ZM126.057 10.8562C125.085 10.5315 124.229 10.2454 123.53 10.0557C123.64 10.1602 123.717 10.3302 123.629 10.5509C123.59 10.6278 123.207 11.0494 123.054 11.1645C122.944 11.2637 122.795 11.3835 122.614 11.5302C121.532 12.4043 119.27 14.2322 116.839 18.3383C119.141 18.2232 121.826 17.7628 121.826 17.7628C121.826 17.7628 121.673 17.2643 121.673 16.8421C121.788 15.1927 122.747 14.195 123.975 14.387C124.666 14.5021 125.126 15.0776 125.126 15.6912C125.126 16.3436 124.627 17.3025 124.128 17.7628C123.782 18.0305 123.398 18.2995 122.938 18.5297C122.938 18.9519 123.513 19.2972 124.012 19.336C123.98 19.4535 123.96 19.5532 123.943 19.6351C123.901 19.8467 123.882 19.9389 123.744 19.9114C122.593 19.9114 122.133 18.7986 122.133 18.7986C120.599 19.067 119.103 19.259 116.072 19.5661C108.437 31.919 106.059 33.9525 101.379 33.9525C98.0411 33.9525 95.0876 31.7658 95.0106 27.8527C94.9718 25.4746 96.8902 22.5585 100.458 21.6759C100.88 21.6759 101.033 21.8298 101.033 22.06C101.033 22.2139 100.88 22.4053 100.534 22.5585C99.4985 22.9426 97.6958 24.9754 97.6958 26.8557C97.6958 28.2749 98.5784 29.848 100.074 30.1927C100.412 30.2853 100.725 30.2789 101.033 30.2727C101.11 30.2712 101.187 30.2696 101.264 30.2696C104.985 30.2696 109.166 26.0882 113.693 19.72C112.964 19.7582 109.857 20.1041 109.089 20.986C108.745 21.2543 108.514 21.1011 108.438 20.794C108.438 20.717 108.553 20.4487 108.668 20.2948C109.785 19.0386 112.933 18.6714 114.156 18.5287C114.278 18.5145 114.381 18.5026 114.46 18.4922C117.75 13.4484 121.944 10.2151 123.13 9.95403C123.104 9.94805 123.079 9.94225 123.054 9.93662C120.1 9.24608 117.415 8.67062 115.304 8.67062C107.9 8.67062 104.601 11.855 104.755 14.7704C104.831 15.9595 105.79 16.727 107.21 16.458C108.745 16.1897 110.893 14.7317 111.43 13.4657C111.545 13.1973 111.852 13.1585 111.967 13.2355C112.197 13.4275 112.12 13.6958 112.12 13.6958C111.928 15.192 109.626 19.3353 105.637 19.3353C103.412 19.3353 101.916 17.2637 101.954 15.2302C101.992 11.4322 105.867 7.59602 115.419 7.59602C117.222 7.59602 119.255 7.74926 121.481 8.13332C124.05 8.59368 130.457 9.66766 135.674 9.7446C135.985 9.7446 136.309 9.74661 136.644 9.74869C138.376 9.75944 140.371 9.77183 142.043 9.51441C143.051 9.34941 143.472 9.24569 143.729 9.18237C144.011 9.11317 144.096 9.0922 144.537 9.0922C145.303 9.0922 145.303 9.39932 145.303 9.70644C145.303 10.9343 141.006 13.2743 137.362 13.2743C133.293 13.2743 129.105 11.8749 126.057 10.8562ZM142.901 26.3321C142.935 26.3011 142.969 26.2704 143.002 26.2401C143.546 25.7288 144.039 25.2125 144.513 24.7159C146.317 22.8277 147.851 21.2229 150.828 21.2531C152.859 21.2873 153.53 22.7428 153.923 23.5958C153.968 23.6935 154.01 23.7832 154.049 23.862L158.998 15.4991H162.029L153.82 30.0388C153.791 30.0956 153.755 30.1617 153.714 30.2346C153.538 30.5548 153.289 31.0061 153.32 31.3811C153.399 32.1098 154.319 31.9184 153.974 31.9184C155.623 31.8415 158.653 28.6959 159.382 27.929L159.392 27.9167C159.546 27.7221 159.808 27.3917 159.957 27.3917C160.111 27.3917 160.418 27.5449 160.418 27.7751C160.418 27.929 160.073 28.5038 159.804 28.8491C158.269 30.7675 155.738 33.7211 152.861 33.798C151.441 33.798 150.904 33.2226 150.712 32.1104C150.06 32.6852 147.835 33.6829 145.572 33.6829C143.692 33.6448 142.924 32.532 142.541 31.6501C142.196 30.9214 142.042 29.8474 142.311 28.7734C141.275 29.3107 140.316 29.387 138.935 29.3489C137.323 29.3101 136.325 28.5814 135.827 26.7011C135.407 27.4723 135.078 28.0732 134.799 28.5836C133.856 30.308 133.479 30.9981 132.029 33.7217H128.769L132.95 26.6248C133.488 25.6653 133.756 24.8985 133.947 24.0935C134.063 23.6325 133.717 23.2103 133.218 23.1727C132.682 23.1727 131.8 23.71 130.955 24.515C130.955 24.515 128.807 26.8169 127.234 29.1568C125.737 31.3824 123.168 33.9137 120.368 33.9137C118.334 33.9137 116.493 32.8016 116.109 30.653C116.109 30.653 115.917 31.1515 114.114 32.1874C114.089 32.1997 114.058 32.2161 114.023 32.2346C113.844 32.3302 113.559 32.4815 113.463 32.4176C113.117 32.1111 112.925 31.727 112.887 31.458C112.993 31.494 113.199 31.3311 113.812 30.8471C113.859 30.8098 113.908 30.7705 113.961 30.7293C115.38 29.6554 115.687 28.8103 115.687 28.8103C115.964 28.2237 116.417 27.3635 116.803 26.6301C116.896 26.4524 116.986 26.2822 117.068 26.1251C118.22 23.8232 120.214 21.4833 123.474 21.3682C124.012 21.3682 124.165 21.5983 124.28 21.7904C124.587 22.0206 124.472 22.4809 124.472 22.4809C122.17 22.8262 120.598 24.1685 119.638 25.4733C119.063 26.3171 118.449 27.6982 118.334 28.6952C118.104 30.4216 118.909 31.5719 120.099 31.8408C122.323 32.1861 124.165 30.5748 125.623 28.0816C126.007 27.4292 126.275 25.741 126.275 24.8203C126.275 23.8995 125.776 22.9407 125.393 22.5566C125.393 21.9048 125.814 21.4826 126.313 21.4826C126.466 21.4826 126.62 21.4826 126.773 21.6359C127.541 22.4034 127.963 23.8614 127.963 24.9735C127.963 25.3576 127.963 25.741 127.886 26.1251C127.952 26.0451 128.018 25.9641 128.086 25.8824C129.663 23.9649 131.594 21.6161 133.104 21.138C133.41 20.9847 133.717 20.9847 134.024 20.9847C136.901 20.9078 136.518 23.5167 136.518 23.5167C138.052 21.7522 139.126 21.0998 140.545 21.1761C142.08 21.2531 142.617 22.3277 142.617 23.1715C142.578 24.1685 141.851 25.3194 140.585 25.3576C139.471 25.3576 138.82 24.8203 138.474 23.8232C137.746 24.0922 137.401 24.5907 137.247 25.5878C137.016 26.8538 137.976 27.8514 139.203 27.8514C141.221 27.852 142.152 27.0097 142.901 26.3321Z" fill="#FEFEFA"/>
<path fill-rule="evenodd" clip-rule="evenodd" d="M69 22.5191C69 34.9489 95.6242 45 128.5 45C161.338 45 187.962 34.9483 187.962 22.5191C187.962 10.0899 161.338 0 128.5 0C95.6242 0 69 10.0899 69 22.5191ZM185.698 22.5191C185.698 33.7211 160.111 42.6982 128.5 42.6982C96.9665 42.6982 71.3406 33.7211 71.3406 22.5191C71.3406 11.3559 96.9665 2.26367 128.5 2.26367C160.111 2.26367 185.698 11.3559 185.698 22.5191Z" fill="#FEFEFA"/>
</g>
<defs>
<clipPath id="clip0_2901_11143">
<rect width="256" height="45" fill="white"/>
</clipPath>
</defs>
</svg>
