<svg width="220" height="45" viewBox="0 0 220 45" fill="none" xmlns="http://www.w3.org/2000/svg">
<g clip-path="url(#clip0_1906_7064)">
<path fill-rule="evenodd" clip-rule="evenodd" d="M111.375 43.9274C111.181 45.3577 108.101 45.3577 107.908 43.9264C107.097 45.4568 104.734 45.0226 104.398 43.484C103.426 44.899 101.176 44.239 100.962 42.7494C100.021 43.7752 98.1542 43.3644 97.7312 42.0363C90.8084 39.1889 85.7399 34.0377 83.7579 27.8872C83.3502 27.7125 82.9824 27.4489 82.6902 27.0689C80.5488 27.5726 78.1561 28.5809 77.2744 26.1872C75.3854 26.6919 71.4213 28.0109 70.2219 24.8028C67.4511 25.1808 63.4206 25.4322 62.9169 22.5358C60.5242 22.5358 56.3681 22.1567 56.3681 19.387C53.9754 19.387 49.8192 17.7503 50.3229 15.8602C48.1815 15.6089 45.285 13.3418 45.285 11.8308C43.1446 11.2014 40.7509 9.5647 41.2556 7.42329C39.9959 6.66828 37.8545 5.78658 37.8545 4.52687C37.8545 3.26818 38.8598 2.2598 39.9938 2.2598C41.1279 2.2598 45.4097 2.5193 46.9208 2.5193C48.4318 2.5193 66.694 2.26695 70.9758 2.5193C75.2586 2.77063 80.6735 2.89016 83.3186 2.63781C85.2679 2.45289 91.9067 2.07283 95.8912 3.13741C104.334 -1.04631 114.95 -1.04529 123.391 3.13741C127.377 2.07181 134.015 2.45187 135.963 2.63985C138.608 2.89118 144.024 2.77267 148.306 2.52134C152.587 2.26899 170.85 2.52134 172.36 2.52134C173.871 2.52134 178.153 2.26184 179.287 2.26184C180.421 2.26184 181.428 3.27022 181.428 4.52891C181.428 5.7876 179.287 6.6693 178.028 7.42533C178.533 9.56572 176.139 11.2035 173.999 11.8328C173.999 13.3438 171.101 15.6109 168.96 15.8622C169.463 17.7513 165.308 19.389 162.914 19.389C162.914 22.1598 158.759 22.5378 156.367 22.5378C155.862 25.4342 151.832 25.1829 149.062 24.8049C147.862 28.0119 143.899 26.6929 142.009 26.1892C141.127 28.582 138.735 27.5746 136.593 27.0709C136.314 27.4315 135.946 27.7134 135.526 27.8893C133.544 34.0387 128.476 39.1899 121.552 42.0373C121.129 43.3655 119.263 43.7762 118.322 42.7504C118.107 44.24 115.858 44.901 114.886 43.485C114.549 45.0236 112.187 45.4578 111.375 43.9274ZM87.8538 27.5746C87.234 27.871 86.5688 28.061 85.886 28.1365C87.8149 33.2132 92.1918 37.5246 98.1041 40.1002L101.146 34.9449C97.3164 33.5462 94.2064 31.2311 92.3368 28.3868C90.9351 28.915 88.5945 29.2675 87.8538 27.5746ZM97.6638 41.4386C97.684 41.1331 97.757 40.8335 97.8793 40.5528C91.8004 37.8996 87.3061 33.4308 85.3599 28.1723C85.0196 28.1784 84.6795 28.1508 84.3515 28.0793C86.3386 33.8599 91.1363 38.6822 97.6638 41.4386ZM101.079 41.5929C101.113 41.4846 103.385 35.7142 103.373 35.6335C102.778 35.4803 102.197 35.3086 101.63 35.1165L98.5373 40.3577C97.2388 42.6053 100.109 43.9825 101.076 41.6021C101.077 41.5991 101.078 41.596 101.079 41.5929ZM104.35 42.3336C104.35 42.3336 105.805 36.1454 105.799 36.1229C105.193 36.032 104.598 35.9196 104.013 35.7868L101.555 41.7594C100.88 43.9887 103.751 44.7151 104.35 42.3336ZM107.72 42.7096C107.722 42.6585 108.153 36.4202 108.132 36.365C107.524 36.3303 106.925 36.2731 106.335 36.1985C106.33 36.2118 104.925 42.2774 104.925 42.2753C104.361 44.8275 107.507 45.2719 107.72 42.7096ZM108.268 42.6707C108.117 45.2157 111.287 45.1646 111.097 42.6564C111.09 42.6064 110.7 36.4866 110.672 36.4335C110.066 36.4948 109.196 36.4774 108.608 36.4529C108.603 36.4682 108.268 42.6707 108.268 42.6707ZM39.9265 3.76675C39.0795 4.41244 40.3586 5.86525 42.7411 6.33828C47.1455 7.21181 54.7661 7.23735 56.2312 7.23735C58.1203 7.23735 71.4305 7.04732 72.5012 6.98397C73.5719 6.92063 73.3829 6.03996 72.5012 5.7876C70.5498 5.15724 58.0814 3.77186 56.318 3.77186C54.5546 3.77186 45.4863 3.51951 41.5825 3.51951C40.8152 3.56242 40.2084 3.55118 39.9265 3.76675ZM44.2144 8.43065C43.8997 8.43065 43.207 8.36833 43.8364 9.25003C44.4667 10.1317 46.9218 11.0768 48.7485 11.0134C58.4462 11.2024 71.2292 9.75473 72.6146 9.43903C75.3476 8.81786 74.5098 7.66542 71.9219 7.80131C70.7256 7.86465 60.4609 8.43065 59.1389 8.49399C57.8158 8.55734 46.4814 8.49399 44.2144 8.43065ZM48.6229 12.5878C46.9851 12.6501 49.6925 14.8549 52.0229 14.9172C59.0122 14.7915 72.7842 12.1332 73.9366 11.8951C75.3077 11.6121 76.0739 9.86711 72.6779 10.3841C68.7731 11.2024 50.1973 12.5878 48.6229 12.5878ZM53.345 16.4916C53.345 16.4916 51.6388 17.1455 55.6601 17.9495C56.8475 18.1745 58.0576 18.2561 59.2645 18.1927C62.1109 18.0404 74.615 14.9969 75.7634 14.6659C77.0527 14.294 77.7771 11.9094 74.189 12.8391C70.2218 13.9098 55.5497 16.2392 53.345 16.4916ZM59.2645 19.766C58.4503 20.5507 61.5949 21.4661 63.295 21.4661C67.9548 21.2137 77.7781 17.1209 78.4708 16.8063C79.5895 16.2975 79.0542 14.5494 77.2744 15.1696C73.622 16.5539 60.8389 19.4514 59.2645 19.766ZM80.1075 17.1209C78.6598 17.8136 69.8439 21.5294 66.4427 22.2854C65.9707 22.4111 65.4721 22.6195 65.512 22.8821C65.8144 24.8927 72.0731 23.1825 72.5073 23.0435C74.9144 22.2722 79.8215 20.471 81.9026 18.443C81.3989 18.1916 80.2342 17.3733 80.1075 17.1209ZM82.7526 19.2623C81.8085 19.8917 75.6367 23.1048 72.8036 23.9855C71.3232 24.479 72.8813 26.0012 75.7726 25.1768C78.9684 24.6813 83.6343 20.9001 84.3903 20.2074C84.0123 20.0184 83.1939 19.5147 82.7526 19.2623ZM85.65 20.9634C84.5088 21.744 82.3122 23.2029 80.9177 24.1336C80.3425 24.5178 78.9693 25.2769 78.999 25.8838C79.0133 26.1739 79.565 26.7246 82.0854 25.8092C83.6527 25.1676 85.5499 23.8629 87.1611 21.5304C86.8464 21.4344 86.027 21.1514 85.65 20.9634ZM88.4831 21.9074C87.8926 22.498 87.1294 23.3051 86.3826 24.0488C85.695 24.9356 84.1625 25.5742 84.6896 26.5989C85.2607 27.7084 87.0589 26.1116 87.7067 25.5006C88.6221 24.6353 89.5058 23.492 89.8378 22.3478C89.3965 22.2221 88.8928 22.0964 88.4831 21.9074ZM66.5694 3.26818C66.128 3.3305 66.1281 3.64517 66.7584 3.71158C68.2061 3.89957 75.0993 5.50971 76.925 5.82438C78.7517 6.13906 84.139 6.16664 87.8538 6.29231C89.0583 6.33317 90.0442 6.47416 90.8442 6.68973C95.9167 8.05877 92.9509 11.2729 91.6319 13.9119C90.8759 15.4863 91.9465 15.6753 92.7015 15.99C92.8272 11.5815 95.7247 9.88142 96.6687 9.18873C97.4717 8.60025 98.6047 7.78598 98.6047 6.43023C98.6047 5.38813 98.1245 4.41857 94.7766 3.73099C89.3903 2.62453 81.5542 3.64619 75.7634 3.64619C73.7476 3.64619 68.2071 3.26818 66.5694 3.26818ZM81.1271 7.09738C80.3721 7.1597 80.6867 8.54508 81.8831 8.23347C80.6234 8.92514 81.3161 9.80786 82.5125 9.61783C81.8198 10.5618 82.8905 11.1289 83.8345 10.8142C82.7015 12.3263 84.4649 12.3886 85.0942 11.8849C84.1502 13.8363 85.7236 13.774 86.6686 13.0179C86.0393 14.4656 87.3613 14.5913 88.432 13.9619C87.6137 14.906 88.5587 15.5363 89.0624 15.1583C89.6294 14.6546 91.0495 13.2478 91.5808 12.5766C94.2933 9.14275 91.6114 7.31295 87.8558 7.13416C86.498 7.06979 82.4492 7.09738 81.1271 7.09738ZM77.4327 6.42819C76.9229 6.39549 74.711 6.03587 74.7642 7.22815C74.8173 8.42146 77.2744 7.9709 77.7791 7.87691C78.7088 7.70425 79.4516 7.42023 79.4301 7.03506C79.4087 6.63967 78.4401 6.49153 77.4327 6.42819ZM77.5227 8.47254C76.9853 8.51341 75.0533 8.41839 75.3547 9.50953C75.4497 9.85281 76.1598 10.5475 78.5352 9.9703C79.5762 9.71693 80.1157 9.1591 80.1157 8.7157C80.1157 8.32849 78.716 8.38161 77.5227 8.47254ZM79.048 10.2441C78.6659 10.3074 76.451 10.4587 76.8218 11.5753C77.0813 12.3538 77.4798 12.1076 78.1551 12.1883C78.6005 12.2415 81.9005 11.3117 81.3846 10.2533C81.2313 9.93863 80.2607 10.0449 79.048 10.2441ZM80.1432 11.8267C77.9467 12.7186 77.9753 13.3224 78.0754 13.6483C78.1745 13.9752 79.1819 14.3788 81.2661 13.3602C82.3214 12.8442 82.3347 12.2578 82.0752 11.843C81.7513 11.323 80.932 11.5059 80.1432 11.8267ZM81.6808 13.3265C79.3944 14.1234 79.5252 14.8508 79.706 15.2779C79.9052 15.7499 80.6275 16.2525 82.536 15.0367C83.6884 14.3032 84.4383 13.6881 84.233 13.1998C84.047 12.7564 82.9569 12.8718 81.6808 13.3265ZM82.5758 15.617C81.9761 15.9808 81.7033 16.4732 82.0814 17.0341C82.7577 18.0394 84.7519 16.2658 85.2526 15.7233C85.6245 15.3208 85.8625 14.8978 85.652 14.5882C85.4344 14.2695 84.7581 14.294 82.5758 15.617ZM86.1864 15.7877C83.5239 17.1455 83.7793 17.8034 84.1502 18.0844C84.5599 18.395 85.5254 18.7209 87.1396 16.8553C87.8476 16.038 87.4584 15.143 86.1864 15.7877ZM87.5156 17.2119C86.9537 17.8402 85.6367 18.7873 86.6564 19.4932C87.5156 20.0878 88.0193 19.435 88.4423 19.0304C90.8881 16.6775 90.0789 15.1879 87.5156 17.2119ZM121.212 26.1933C121.212 24.1847 119.143 22.1761 116.846 21.4834C116.231 21.3445 116.329 20.7989 116.807 20.5834C117.266 20.3749 119.948 18.5053 119.911 16.1504C119.911 13.8649 117.228 10.4014 109.412 10.4014C104.814 10.4014 100.983 11.4405 98.6844 13.3806C99.2198 13.7964 99.8338 14.4197 99.8338 15.1123V27.7881C99.7572 28.5503 99.374 29.1735 98.76 29.8662C100.824 31.3313 104.519 32.7289 109.825 32.7115C115.495 32.5726 121.212 30.9032 121.212 26.1933ZM95.5499 4.87832C95.2935 4.74959 95.5183 4.29904 95.7758 4.42777C98.2216 5.53525 98.6763 7.08308 96.5635 8.57471C96.3285 8.74022 96.0383 8.32849 96.2733 8.16298C98.193 6.8062 97.4196 5.81315 95.5499 4.87832ZM109.8 20.0919C107.361 20.0919 105.385 18.5129 105.385 16.5651C105.385 14.6174 107.361 13.0384 109.8 13.0384C112.239 13.0384 114.216 14.6174 114.216 16.5651C114.216 18.5129 112.239 20.0919 109.8 20.0919ZM110.369 29.8468C107.635 29.8468 105.419 28.18 105.419 26.1238C105.419 24.0677 107.635 22.4009 110.369 22.4009C113.103 22.4009 115.319 24.0677 115.319 26.1238C115.319 28.18 113.103 29.8468 110.369 29.8468ZM90.6174 20.0419C90.79 19.1827 91.0669 18.348 91.4367 17.5459C91.4153 17.5143 90.7604 16.6765 89.1472 19.0079C88.2563 20.2942 89.8297 20.8122 90.6174 20.0419ZM90.5652 24.0018C89.9012 24.7732 89.2749 25.4209 88.8611 25.9379C87.9968 27.0188 90.2455 28.3511 91.4572 26.8145C91.0373 25.9203 90.7374 24.9746 90.5652 24.0018ZM121.558 3.85257C121.915 3.65072 122.29 3.48376 122.678 3.354C114.615 -0.446595 104.667 -0.446595 96.6053 3.354C97.0242 3.49907 97.4002 3.66458 97.7241 3.85257C105.19 0.600611 114.158 0.629218 121.558 3.85257ZM125.27 13.8516C124.365 10.7028 122.105 9.42167 121.229 8.80867C119.466 7.57756 119.562 5.75798 121.068 4.18972C113.873 1.1564 105.326 1.19113 98.2155 4.18972C99.7214 5.75798 99.8164 7.57756 98.0551 8.80867C97.1785 9.42167 94.9175 10.7028 94.0134 13.8516C101.699 5.93064 117.584 5.92962 125.27 13.8516ZM131.43 27.5746C130.688 29.2675 128.347 28.915 126.947 28.3868C125.077 31.2311 121.967 33.5462 118.137 34.9449L121.179 40.1002C127.092 37.5246 131.468 33.2132 133.399 28.1365C132.715 28.0613 132.05 27.8713 131.43 27.5746ZM121.62 41.4386C128.147 38.6822 132.946 33.8599 134.932 28.0793C134.601 28.1493 134.262 28.1805 133.924 28.1723C131.977 33.4308 127.483 37.8996 121.404 40.5528C121.527 40.8335 121.599 41.1331 121.62 41.4386ZM118.203 41.5929L118.207 41.6021C119.175 43.9825 122.045 42.6053 120.746 40.3577L117.654 35.1165C117.087 35.3086 116.506 35.4803 115.911 35.6335C115.898 35.7142 118.171 41.4846 118.203 41.5929ZM114.933 42.3336C115.533 44.7151 118.403 43.9887 117.727 41.7594C117.727 41.7594 115.398 36.0963 115.269 35.7868C114.686 35.9196 114.09 36.032 113.484 36.1229C113.478 36.1454 114.933 42.3336 114.933 42.3336ZM111.564 42.7096C111.777 45.2719 114.922 44.8275 114.358 42.2753C114.359 42.2774 112.954 36.2118 112.948 36.1985C112.357 36.2731 111.758 36.3303 111.151 36.365C111.13 36.4202 111.561 42.6585 111.564 42.7096ZM179.357 3.76675C179.075 3.55118 178.468 3.56242 177.701 3.51951C173.797 3.51951 164.729 3.77186 162.966 3.77186C161.202 3.77186 148.734 5.15724 146.782 5.7876C145.901 6.03996 145.712 6.92063 146.782 6.98397C147.853 7.04732 161.162 7.23735 163.051 7.23735C164.517 7.23735 172.138 7.21181 176.541 6.33828C178.926 5.86525 180.205 4.41244 179.357 3.76675ZM175.068 8.43065C172.801 8.49399 161.468 8.55734 160.145 8.49399C158.823 8.43065 148.558 7.86465 147.362 7.80131C144.774 7.66542 143.935 8.81786 146.669 9.43903C148.053 9.75473 160.837 11.2024 170.534 11.0134C172.36 11.0768 174.816 10.1317 175.446 9.25003C176.077 8.36833 175.384 8.43065 175.068 8.43065ZM170.661 12.5878C169.086 12.5878 150.51 11.2024 146.606 10.3841C143.21 9.86711 143.976 11.6121 145.347 11.8951C146.499 12.1332 160.27 14.7915 167.261 14.9172C169.59 14.8549 172.297 12.6501 170.661 12.5878ZM165.939 16.4916C163.735 16.2392 149.062 13.9098 145.096 12.8391C141.507 11.9094 142.231 14.294 143.521 14.6659C144.669 14.9969 157.173 18.0404 160.019 18.1927C161.226 18.2561 162.436 18.1745 163.623 17.9495C167.645 17.1455 165.939 16.4916 165.939 16.4916ZM160.019 19.766C158.445 19.4514 145.662 16.5539 142.009 15.1696C140.23 14.5494 139.694 16.2975 140.813 16.8063C141.505 17.1209 151.329 21.2137 155.989 21.4661C157.689 21.4661 160.833 20.5507 160.019 19.766ZM139.175 17.1209C139.049 17.3733 137.885 18.1916 137.38 18.443C139.461 20.471 144.369 22.2722 146.775 23.0435C147.209 23.1825 153.468 24.8927 153.771 22.8821C153.81 22.6195 153.312 22.4111 152.84 22.2854C149.44 21.5294 140.623 17.8136 139.175 17.1209ZM136.53 19.2623C136.09 19.5147 135.271 20.0184 134.892 20.2074C135.648 20.9001 140.314 24.6813 143.51 25.1768C146.401 26.0012 147.959 24.479 146.479 23.9855C143.646 23.1048 137.474 19.8917 136.53 19.2623ZM133.635 20.9634C133.256 21.1514 132.437 21.4344 132.124 21.5304C133.735 23.8629 135.632 25.1676 137.199 25.8092C139.72 26.7246 140.271 26.1739 140.286 25.8838C140.315 25.2769 138.942 24.5178 138.367 24.1336C136.972 23.2029 134.775 21.744 133.635 20.9634ZM130.799 21.9074C130.391 22.0964 129.887 22.2221 129.446 22.3478C129.778 23.492 130.663 24.6353 131.578 25.5006C132.225 26.1116 134.023 27.7084 134.594 26.5989C135.122 25.5742 133.59 24.9356 132.901 24.0488C132.154 23.3051 131.39 22.498 130.799 21.9074ZM152.714 3.26818C151.076 3.26818 145.536 3.64619 143.52 3.64619C137.728 3.64619 129.892 2.62453 124.507 3.73099C121.159 4.41857 120.679 5.38813 120.679 6.43023C120.679 7.78598 121.811 8.60025 122.614 9.18873C123.559 9.88142 126.456 11.5815 126.582 15.99C127.337 15.6753 128.408 15.4863 127.653 13.9119C126.333 11.2729 123.368 8.05877 128.44 6.68973C129.24 6.47416 130.226 6.33317 131.432 6.29231C135.147 6.16664 140.534 6.13906 142.36 5.82438C144.185 5.50971 151.078 3.89957 152.526 3.71158C153.156 3.64517 153.156 3.3305 152.714 3.26818ZM138.155 7.09738C136.833 7.09738 132.785 7.06979 131.427 7.13416C127.671 7.31295 124.989 9.14275 127.702 12.5766C128.233 13.2478 129.653 14.6546 130.22 15.1583C130.724 15.5363 131.669 14.906 130.849 13.9619C131.921 14.5913 133.243 14.4656 132.614 13.0179C133.558 13.774 135.132 13.8363 134.188 11.8849C134.818 12.3886 136.581 12.3263 135.447 10.8142C136.392 11.1289 137.463 10.5618 136.769 9.61783C137.966 9.80786 138.659 8.92514 137.398 8.23347C138.597 8.54508 138.911 7.1597 138.155 7.09738ZM141.851 6.42819C140.843 6.49153 139.875 6.63967 139.853 7.03506C139.832 7.42023 140.575 7.70425 141.504 7.87691C142.009 7.9709 144.466 8.42146 144.519 7.22815C144.573 6.03587 142.361 6.39549 141.851 6.42819ZM141.762 8.47254C140.568 8.38161 139.169 8.32849 139.169 8.7157C139.169 9.1591 139.707 9.71693 140.749 9.9703C143.125 10.5475 143.834 9.85281 143.929 9.50953C144.231 8.41839 142.298 8.51341 141.762 8.47254ZM140.234 10.2441C139.023 10.0449 138.052 9.93863 137.898 10.2533C137.382 11.3117 140.682 12.2415 141.127 12.1883C141.803 12.1076 142.201 12.3538 142.461 11.5753C142.832 10.4587 140.617 10.3074 140.234 10.2441ZM139.14 11.8267C138.352 11.5059 137.532 11.323 137.207 11.843C136.948 12.2578 136.962 12.8442 138.018 13.3602C140.102 14.3788 141.108 13.9752 141.208 13.6483C141.307 13.3224 141.336 12.7186 139.14 11.8267ZM137.602 13.3265C136.326 12.8718 135.237 12.7564 135.05 13.1998C134.843 13.6881 135.593 14.3032 136.746 15.0367C138.655 16.2525 139.377 15.7499 139.577 15.2779C139.757 14.8508 139.888 14.1234 137.602 13.3265ZM136.707 15.617C134.525 14.294 133.848 14.2695 133.63 14.5882C133.42 14.8978 133.659 15.3208 134.03 15.7233C134.531 16.2658 136.526 18.0394 137.201 17.0341C137.579 16.4732 137.306 15.9808 136.707 15.617ZM133.097 15.7877C131.825 15.143 131.436 16.038 132.144 16.8553C133.758 18.7209 134.724 18.395 135.133 18.0844C135.504 17.8034 135.76 17.1455 133.097 15.7877ZM131.767 17.2119C129.205 15.1879 128.395 16.6775 130.841 19.0304C131.263 19.435 131.767 20.0878 132.627 19.4932C133.646 18.7873 132.329 17.8402 131.767 17.2119ZM123.734 4.87832C121.864 5.81315 121.091 6.8062 123.011 8.16298C123.245 8.32849 122.955 8.74022 122.72 8.57471C120.608 7.08308 121.063 5.53525 123.509 4.42777C123.765 4.29904 123.99 4.74959 123.734 4.87832ZM128.666 20.0419C129.454 20.8122 131.027 20.2942 130.135 19.0079C128.522 16.6765 127.867 17.5143 127.846 17.5459C128.217 18.348 128.493 19.1827 128.666 20.0419ZM128.717 24.0018C128.549 24.9724 128.246 25.9144 127.826 26.8145C129.038 28.3511 131.287 27.0188 130.422 25.9379C130.009 25.4209 129.381 24.7732 128.717 24.0018Z" fill="#FEFEFA"/>
</g>
<defs>
<clipPath id="clip0_1906_7064">
<rect width="218.285" height="45" fill="white" transform="translate(0.854492)"/>
</clipPath>
</defs>
</svg>
