<svg width="256" height="45" viewBox="0 0 256 45" fill="none" xmlns="http://www.w3.org/2000/svg">
<g clip-path="url(#clip0_1906_7086)">
<path fill-rule="evenodd" clip-rule="evenodd" d="M112.994 22.007C115.456 25.5178 117.931 29.0191 120.419 32.5109C120.541 32.6689 120.59 33.2776 120.09 33.2776L114.856 33.3142C114.308 33.3142 113.785 32.8758 113.517 32.5593L110.255 28.5422L107.176 24.7325L107.164 32.4862C107.164 32.815 106.872 33.3018 106.531 33.3142L101.711 33.3384C101.37 33.3384 100.883 32.8032 100.883 32.4501V13.8386C100.883 13.6441 100.007 13.4979 100.019 12.7919C100.031 12.074 100.384 11.9278 100.773 11.9278H106.398C106.702 11.9278 107.201 12.2324 107.201 12.7069L107.177 19.6696L110.256 15.6407L112.471 12.7558C112.788 12.3544 113.518 11.8918 113.883 11.8918L118.788 11.9283C119.299 11.9283 119.592 12.342 119.348 12.7074L112.994 22.007ZM131.057 11.9288C131.483 11.9288 131.885 12.2329 131.885 12.7074V32.4871C131.885 32.9502 131.739 33.2786 131.192 33.2786L128.222 33.3028L126.226 33.3151C125.8 33.3151 125.495 32.9863 125.495 32.4871V13.7057C125.495 13.6934 124.703 13.4865 124.582 12.7321C124.692 12.3183 124.838 11.9288 125.495 11.9288H131.057ZM147.989 2.33688C162.657 6.01278 172.772 13.6815 172.771 22.5062C172.771 31.3313 162.656 38.9996 147.988 42.6755C142.073 44.1725 135.415 45 128.379 45H128.221C121.843 45 115.757 44.2944 110.255 43.0403C94.809 39.5106 84 31.6236 84 22.5062C84 13.3892 94.809 5.50175 110.256 1.97152C115.757 0.717908 121.844 0.0118637 128.222 0.0118637C128.282 0.0118637 128.331 0 128.38 0C135.416 0 142.073 0.839857 147.989 2.33688ZM147.989 37.7701C160.806 34.8245 169.534 29.0788 169.534 22.5062C169.534 15.9335 160.806 10.1883 147.989 7.24267C142.159 5.89179 135.476 5.125 128.38 5.125H128.222C121.795 5.13686 115.697 5.78217 110.256 6.91431C96.6348 9.75036 87.2379 15.6782 87.2379 22.5066C87.2379 29.3351 96.6348 35.2629 110.256 38.099C115.697 39.2311 121.795 39.8764 128.222 39.8764C128.282 39.8764 128.331 39.8883 128.38 39.8883C135.476 39.8883 142.159 39.1215 147.989 37.7701ZM151.823 12.7321L158.542 32.536C158.627 32.7794 158.31 33.3151 158.043 33.3151L153.442 33.2786C153.138 33.2786 152.566 32.8283 152.481 32.5484L148.378 19.9624C148.342 19.8405 148.16 19.7797 147.989 19.7797C147.88 19.7797 147.77 19.8286 147.733 19.9135C147.04 22.007 146.334 24.1005 145.628 26.1944L143.534 32.4748C143.376 32.9498 142.828 33.2781 142.439 33.2781L138.02 33.3147C137.631 33.3147 137.351 32.7306 137.46 32.4141L143.802 13.7057C143.863 13.5477 142.743 13.5838 142.755 12.5129C142.755 12.148 143.12 11.9288 143.388 11.9288H150.91C151.324 11.9288 151.641 12.3178 151.823 12.7321Z" fill="#FEFEFA"/>
</g>
<defs>
<clipPath id="clip0_1906_7086">
<rect width="256" height="45" fill="white"/>
</clipPath>
</defs>
</svg>
