<svg width="219" height="45" viewBox="0 0 219 45" fill="none" xmlns="http://www.w3.org/2000/svg">
<g clip-path="url(#clip0_1906_7070)">
<path d="M126.846 4V23.9835C126.764 24.0931 143.353 13.7899 143.353 13.7899L126.846 4Z" fill="#FEFEFA"/>
<path d="M161.726 16.487H157.591C155.268 16.4054 153.81 17.9431 153.864 20.1813V42H147.623V20.1813C148.108 15.138 152.432 11.2007 157.591 11.1735H161.726V16.487Z" fill="#FEFEFA"/>
<path d="M165.128 32.642L165.156 32.6683C165.697 37.6308 170.02 41.5138 175.125 41.5418H179.285V36.2274H175.125C172.829 36.309 170.803 34.7713 170.856 32.5604V16.2711H177.773V10.6617H170.748V4.89084H165.128L165.128 32.642Z" fill="#FEFEFA"/>
<path d="M91.7516 41.677H85.5141V19.8574H85.5405C85.486 17.7272 83.163 15.9201 80.8392 15.9201C78.5154 15.9201 76.1651 17.7272 76.1379 19.8574V20.0733C76.1379 20.1277 76.1379 20.1541 76.1651 20.1813H76.1379V41.677H69.897V20.2093H69.8698V19.8583C69.8698 14.1673 74.7873 9.55583 80.8383 9.55583C84.0265 9.55583 86.9166 10.8504 88.916 12.9007C90.9154 10.8241 93.8328 9.50228 97.0482 9.50228C103.072 9.50228 108.017 14.1409 108.017 19.8047C108.017 19.8582 108.01 19.9186 108.003 19.9791C107.996 20.0399 107.99 20.1008 107.99 20.1549V41.6778H101.749V20.1558H101.721C101.938 17.8904 99.4785 15.8946 97.0473 15.8946C94.778 15.8946 91.9952 17.5938 91.8061 19.6696V20.1277C91.8061 20.1413 91.7993 20.1547 91.7925 20.1681C91.7857 20.1815 91.7789 20.1949 91.7789 20.2085H91.7516V41.677Z" fill="#FEFEFA"/>
<path d="M39.2852 32.9106L45.4179 32.3181C45.8496 34.7721 50.6046 36.1203 52.7122 36.3906C54.468 36.6329 59.9528 35.2584 59.9528 32.4524C59.9528 28.8445 55.7495 28.5031 51.5431 28.1615C49.5862 28.0025 47.6286 27.8435 46.0932 27.3556C42.2034 26.1154 40.0413 23.8228 40.0413 19.8047C40.0413 13.5204 46.9038 9.42153 52.3068 9.42153C56.2247 9.42153 59.1694 10.258 61.1688 11.9835C63.1409 13.7091 64.6813 15.8665 64.7622 18.7524L58.4668 19.0218C58.0887 16.8916 55.9276 15.3539 53.1447 15.3004C51.2535 15.274 48.6597 16.2439 47.6873 16.946C46.3095 17.944 46.9038 21.8278 48.4434 22.3404C50.8041 23.121 52.9699 23.0811 55.013 23.0435C57.2724 23.0018 59.3817 22.9629 61.4387 24.0396C64.6268 25.5773 65.8965 29.6226 65.8965 32.0767C65.8965 39.1141 58.7376 41.7305 52.6585 41.7305C47.4718 41.7297 39.9604 38.9254 39.2852 32.9106Z" fill="#FEFEFA"/>
<path d="M142.624 25.953C142.543 23.0944 141.652 20.4516 140.219 18.1862L139.967 18.3208C138.484 19.1116 137 19.9031 135.491 20.6947C136.653 22.3123 137.302 24.281 137.302 26.4112C137.302 31.8863 132.816 36.3643 127.333 36.3643C121.822 36.3643 117.336 31.8863 117.336 26.4112C117.336 21.6926 120.659 17.7281 125.089 16.7029C125.141 15.0269 125.214 13.351 125.288 11.654L125.306 11.2551C117.823 12.253 112.04 18.6716 112.04 26.4112C112.04 34.8265 118.905 41.677 127.333 41.677C131.104 41.6789 134.743 40.2851 137.545 37.7651V41.677H142.65V25.953H142.624Z" fill="#FEFEFA"/>
</g>
<defs>
<clipPath id="clip0_1906_7070">
<rect width="218.285" height="45" fill="white" transform="translate(0.285156)"/>
</clipPath>
</defs>
</svg>
