<svg width="256" height="45" viewBox="0 0 256 45" fill="none" xmlns="http://www.w3.org/2000/svg">
<g clip-path="url(#clip0_2901_11146)">
<path fill-rule="evenodd" clip-rule="evenodd" d="M115.496 10.5121C118.14 10.5105 120.394 12.8123 119.851 15.7439L117.484 28.5172C116.86 31.8787 114.01 34.249 110.59 34.2458L97.7261 34.2347C94.6464 34.2331 92.0229 31.5491 92.6559 28.1327L94.9553 15.7248C95.5206 12.6754 98.1034 10.5257 101.205 10.5233L115.496 10.5121ZM106.691 28.6542C109.303 28.6558 109.929 27.8134 110.391 25.7298L111.885 17.6946C112.112 16.4756 111.164 15.7479 110.398 15.7479H105.594C103.432 15.7495 102.437 16.2957 101.901 19.1859L100.542 26.5172C100.166 28.5451 101.932 28.6526 103.123 28.6542H106.691ZM128.985 28.6406L136.269 28.655L141.578 0.0119429L148.765 0L142.417 34.2434L124.552 34.2355C121.228 34.2323 118.828 31.6526 119.481 28.1287L121.781 15.72C122.347 12.6698 124.929 10.5312 128.031 10.5288L138.053 10.5304L137.083 15.7614L132.419 15.7622C130.258 15.763 129.225 16.2901 128.688 19.1803L127.329 26.5116C127.098 27.7616 127.711 28.639 128.985 28.6406ZM154.349 10.5488L172.617 10.5296L167.391 38.6408C166.265 44.7166 162.624 44.9825 159.307 44.9809H159.016L159.019 44.9889L143.466 45L144.461 39.5915H157.522C159.253 39.5915 160.297 38.3582 160.532 37.0922L164.497 15.7622L158.729 15.7654C156.569 15.767 155.476 16.2989 154.94 19.189L153.581 26.5204C153.204 28.5483 155.062 28.6398 156.252 28.6398H160.547L159.511 34.2363H150.856C147.531 34.2347 145.144 31.7856 145.819 28.1422L148.119 15.7336C148.684 12.6841 151.247 10.5511 154.349 10.5488ZM181.472 24.5339L182.274 20.2336H189.646L190.206 17.6954C190.424 16.4764 189.516 15.7487 188.78 15.7487H184.169C182.095 15.7503 181.14 16.2965 180.626 19.1866L179.321 26.518C178.96 28.5459 180.654 28.6406 181.798 28.6422L195.284 28.6438L194.245 34.2466L176.618 34.2355C173.662 34.2339 171.145 31.5499 171.753 28.1335L173.959 15.7256C174.501 12.6762 176.981 10.5265 179.957 10.5241L193.673 10.5129C196.21 10.5113 198.372 12.8131 197.851 15.7447L196.287 24.5371L181.472 24.5339ZM62.7333 8.69601L63.7819 3.04305L87.057 3.04464C91.4838 3.04464 94.4122 4.99372 93.6168 10.4803L90.6064 26.7226C89.1781 32.5531 86.9671 34.2355 77.6142 34.2371L58 34.2259L62.2087 11.5161L70.3155 11.5201L67.2231 28.2147H78.8801C79.9311 28.2099 81.8412 27.6565 82.4973 25.0888L85.0466 11.3322C85.2871 9.96196 84.2632 8.69124 82.1119 8.69522L62.7333 8.69601Z" fill="#FEFEFA"/>
</g>
<defs>
<clipPath id="clip0_2901_11146">
<rect width="256" height="45" fill="white"/>
</clipPath>
</defs>
</svg>
