<svg width="219" height="45" viewBox="0 0 219 45" fill="none" xmlns="http://www.w3.org/2000/svg">
<g clip-path="url(#clip0_1906_7067)">
<path fill-rule="evenodd" clip-rule="evenodd" d="M119.241 18.4916C118.491 17.5625 118.895 16.0542 120.008 15.1751C121.12 14.2959 122.741 14.4126 123.424 15.2459C124.187 16.1709 123.837 17.6625 122.728 18.5416C121.62 19.4207 119.991 19.4165 119.241 18.4916ZM64.9725 9.06283C68.7116 7.69558 72.5819 6.71821 76.5219 6.14629C79.4343 5.74631 82.7133 6.0588 83.6883 8.45036C84.6591 10.8378 83.1508 15.1459 74.622 18.9457C66.3224 22.6456 55.7478 24.433 49.1523 24.5747C47.9911 25.97 46.9891 27.4904 46.1649 29.1078C45.3983 30.5786 45.0442 32.0493 45.0983 33.1326C45.2191 35.5658 47.1274 36.8616 50.0564 36.6241C51.6397 36.495 53.4771 35.7867 55.477 34.7325C59.4519 32.6368 64.085 29.1245 68.6014 25.8788C69.2222 25.4329 70.5764 24.5122 70.6764 24.4455C73.3096 22.7164 75.6928 21.6081 78.4885 20.954C79.3801 20.7457 80.9134 20.5207 82.6008 20.5748C85.084 20.6498 87.4756 21.1123 88.7589 21.8956C88.1298 22.2873 87.5381 22.8164 87.2006 23.1122C83.7883 26.0954 81.0134 29.5911 79.6176 31.7743C79.2176 32.3993 78.9551 33.2618 79.2676 33.5451C79.5301 33.7867 80.101 33.7909 80.9801 33.2326C82.6675 32.1618 86.2923 28.8036 88.4964 26.912C89.013 26.4704 92.0962 24.158 93.1087 23.5539L93.1712 23.5122C95.3419 22.2206 97.3252 21.5415 98.696 21.1706C101.8 20.329 104.662 20.4707 105.142 20.8123C107.914 18.2505 110.631 15.6292 113.291 12.9502C114.587 12.9502 117.074 12.946 118.445 12.9168C117.991 13.2222 117.555 13.5547 117.141 13.9126C115.804 15.2001 111.358 19.4707 107.771 23.1039C103.883 27.037 101.704 29.5744 100.558 31.566C99.9751 32.5743 99.7292 33.3909 100.079 33.6784C100.458 33.9951 101.233 33.7368 102.121 33.1493C104.133 31.816 109.729 26.7537 111.679 24.808C111.679 24.808 114.937 21.5623 115.666 20.8873C116.962 20.8915 119.341 20.8831 120.708 20.854C120.337 21.104 119.658 21.5706 119.374 21.8414C116.753 24.3622 113.208 28.0453 111.658 30.2619C110.437 32.0118 110.595 33.1118 111.016 33.5534C111.82 34.3951 114.366 33.9076 118.083 31.8743C117.774 30.1994 118.362 27.6162 119.674 25.5913C122.487 21.2498 128.374 15.8042 132.915 13.521C135.194 12.3752 136.657 12.1835 137.557 12.9043C138.64 13.771 138.311 15.7709 137.111 17.6416C133.469 23.2997 129.478 26.7037 121.724 31.7035C121.72 33.0326 122.457 33.9159 124.361 33.9159C126.849 33.9159 129.345 33.0451 131.961 31.7327C131.711 30.0827 132.378 27.5079 133.632 25.5746C136.423 21.2706 142.344 15.7834 146.861 13.5085C149.223 12.321 150.602 12.2044 151.494 12.9002C152.627 13.7835 152.248 15.8209 150.969 17.7999C147.44 23.2664 143.469 26.6537 135.582 31.741C135.457 33.1784 136.203 33.8867 137.336 33.8534C139.14 33.8034 141.394 32.2701 144.731 29.2453C145.823 28.2578 149.469 24.9955 150.34 24.4288C153.006 22.6789 155.368 21.5914 158.148 20.929C159.866 20.562 161.63 20.4567 163.381 20.6165C165.351 20.7707 167.205 21.1748 168.422 21.8664C167.751 22.2873 167.11 22.8581 166.818 23.1122C163.934 25.6527 161.396 28.5607 159.268 31.7618C158.827 32.4576 158.627 33.2576 158.914 33.5243C159.222 33.8034 159.822 33.7034 160.602 33.2118C162.289 32.141 168.847 26.1579 168.914 26.0913C171.58 23.483 174.563 21.5831 177.692 20.6207C180.53 19.7499 183.401 19.8957 184.267 21.8248C185.509 24.5872 182.792 28.0245 178.63 28.7911L178.23 27.3329C180.276 25.9954 182.134 23.4039 181.184 22.3831C180.492 21.6373 179.013 22.0123 177.797 22.7122C175.688 23.9247 172.722 26.6996 171.009 29.5994C169.893 31.4827 169.751 33.4034 170.809 34.3701C171.851 35.32 173.38 35.3742 174.855 35.0159C178.117 34.2242 180.88 32.0785 183.146 29.6453L183.805 31.5285C181.301 34.1326 178.376 35.9575 175.347 36.7325C171.934 37.6074 169.422 37.2241 167.793 35.5367C166.68 34.3867 166.247 32.5076 166.568 30.5786C164.601 32.4076 163.081 33.7826 161.864 34.6242C160.352 35.67 158.41 36.4283 157.014 35.4867C155.602 34.5367 155.843 32.1035 156.406 31.0119C154.871 32.4201 153.205 33.6786 151.431 34.77C149.081 36.1991 146.773 36.2741 145.706 34.97C145.031 34.1409 144.777 32.791 145.294 31.1077C143.415 32.7785 141.561 34.2659 139.802 35.1325C138.752 35.68 137.578 35.9469 136.394 35.9075C134.324 35.8117 133.165 34.7825 132.507 33.4201C128.932 35.2992 126.391 35.9158 123.774 35.9158C121.27 35.9158 119.612 34.87 118.737 33.4993C117.3 34.3803 115.755 35.0721 114.141 35.5575C111.887 36.1783 109.67 36.1575 108.579 35.0409C107.771 34.2159 107.183 32.6451 108.025 30.3869C105.937 32.3451 104.425 33.7284 103.154 34.62C101.687 35.645 99.4459 36.52 98.1168 35.4575C96.5877 34.2326 97.1418 31.9077 97.6918 30.9785C97.2335 31.4077 96.8002 31.7702 96.3711 32.1368C95.19 33.142 93.9383 34.061 92.6254 34.8867C90.4172 36.295 88.6089 36.17 87.5506 35.5033C86.209 34.6659 86.1382 32.6618 86.6923 30.8702C84.8466 32.566 83.3633 33.8534 82.2092 34.6534C80.6551 35.7325 78.7593 36.445 77.3427 35.4908C75.7886 34.4451 76.3636 31.7618 76.7219 31.0702C76.0386 31.6952 75.2886 32.2868 74.5262 32.8701C73.6467 33.5509 72.733 34.1865 71.7888 34.7742C69.5639 36.1241 67.2015 36.3741 66.089 35.0159C65.2182 33.9492 64.9808 32.1327 66.1932 29.7661C59.1019 35.3283 53.248 39.1198 47.8649 39.1198C42.1776 39.1198 39.1111 33.8784 40.8235 28.537C41.3231 26.9552 42.0456 25.4526 42.9692 24.0747C37.7528 23.1414 34.8779 21.329 34.5904 18.1166C34.3196 15.0792 36.7737 12.9335 38.6069 11.7252C40.0246 10.7846 41.5285 9.98101 43.0984 9.32532C47.3024 7.58373 53.5479 6.44211 58.3894 6.60461L59.2269 8.45452C59.0102 8.41703 58.7727 8.39619 58.5144 8.37119C56.6811 8.22537 53.4063 8.48786 50.0523 9.32115C47.0524 10.0628 43.7442 11.3836 41.7068 13.1252C38.8319 15.5834 38.9361 18.0624 39.9235 19.529C40.8152 20.8498 42.0943 21.6248 44.4858 22.0789C45.3691 21.0498 46.3899 20.0498 47.5524 19.0249C52.5355 14.6543 58.7769 11.3002 64.9725 9.06283ZM51.0814 22.5122C60.1018 22.2039 68.1223 18.4249 74.672 15.2376C79.2884 12.9918 82.3675 10.5461 81.6717 8.93367C81.4509 8.42119 80.7759 8.1462 79.9468 8.06704C78.9073 7.98556 77.8617 8.03455 76.8344 8.21287C73.9554 8.63785 70.6639 9.62531 66.8599 11.5044C65.4932 12.1794 64.0641 12.9668 62.56 13.8876C59.7268 15.6209 56.7311 17.75 53.5563 20.3332C52.7021 21.0257 51.8765 21.7527 51.0814 22.5122ZM136.049 15.5C137.023 14.1001 136.319 13.6001 134.974 14.4918C131.92 16.5125 129.09 19.2291 126.824 21.8039C124.499 24.4455 122.491 27.512 121.991 29.4536C124.532 27.7453 127.036 25.4996 129.199 23.3414C132.161 20.3707 134.803 17.2916 136.049 15.5ZM149.998 15.5C150.969 14.1084 150.29 13.5876 148.915 14.4918C143.794 17.8624 137.194 25.0121 135.915 29.5036C138.436 27.8578 141.494 25.0746 144.161 22.3164C146.744 19.6457 148.931 17.0291 149.998 15.5ZM162.314 22.7914C162.089 22.6164 161.327 22.3914 160.443 22.3831C159.485 22.3747 158.331 22.7039 157.252 23.2872C153.431 25.3663 150.577 28.1328 148.602 31.266C147.956 32.2951 148.006 33.1284 148.285 33.3826C148.673 33.7367 149.423 33.6451 150.748 32.9951C153.581 31.6077 158.102 27.2037 162.314 22.7914ZM103.417 22.8414C103.058 22.612 102.649 22.4746 102.225 22.4414C101.157 22.324 100.077 22.5179 99.1167 22.9997C95.9044 24.5413 92.7337 27.0495 90.1088 30.8994C89.3755 31.9743 89.1422 33.0993 89.538 33.4701C89.963 33.8659 90.8963 33.7284 92.0129 33.0868C95.7086 30.9577 99.7001 26.6746 103.417 22.8414ZM77.9094 27.5829C79.4676 26.0913 81.0884 24.458 82.6633 22.8039C82.4133 22.6206 81.5883 22.4081 80.7717 22.4039C79.8468 22.3956 78.5801 22.7664 77.5802 23.308C74.0647 25.1747 71.0932 27.9209 68.9556 31.2785C68.3056 32.3201 68.3389 33.1159 68.6514 33.4034C69.0472 33.7659 69.7806 33.6701 71.0889 33.0285C72.8554 32.1577 75.2928 30.0869 77.9094 27.5829ZM182.584 37.0949C181.739 37.0949 181.055 36.4103 181.055 35.5658C181.055 34.7213 181.739 34.0367 182.584 34.0367C183.428 34.0367 184.113 34.7213 184.113 35.5658C184.113 36.4103 183.428 37.0949 182.584 37.0949ZM182.584 36.9158C183.33 36.9158 183.934 36.3114 183.934 35.5658C183.934 34.8203 183.33 34.2159 182.584 34.2159C181.838 34.2159 181.234 34.8203 181.234 35.5658C181.234 36.3114 181.838 36.9158 182.584 36.9158ZM182.017 36.4325V34.7159H182.767C182.913 34.7159 183.055 34.7242 183.184 34.8034C183.313 34.8742 183.376 35.0284 183.376 35.17C183.376 35.5075 183.138 35.6325 182.834 35.6408L183.355 36.4325H183.105L182.613 35.6408H182.226V36.4325H182.017ZM182.226 34.87V35.4783H182.546C182.788 35.4783 183.159 35.52 183.159 35.17C183.159 34.9075 182.926 34.8742 182.713 34.8742H182.226V34.87Z" fill="white"/>
</g>
<defs>
<clipPath id="clip0_1906_7067">
<rect width="218.285" height="45" fill="white" transform="translate(0.569824)"/>
</clipPath>
</defs>
</svg>
