<svg width="256" height="45" viewBox="0 0 256 45" fill="none" xmlns="http://www.w3.org/2000/svg">
<g clip-path="url(#clip0_1906_7083)">
<path fill-rule="evenodd" clip-rule="evenodd" d="M165.253 24.0266C165.162 29.0456 166.246 31.704 170.383 31.704C174.514 31.704 175.106 27.1756 175.106 23.7295C175.106 20.2813 174.323 16.9338 169.983 16.9338C167.321 16.9338 165.355 19.0025 165.253 24.0266ZM156.883 45V11.0264H165.355V12.4045C165.355 14.2427 166.096 13.4847 166.694 12.7683C166.794 12.6486 168.682 10.3373 172.935 10.3373C177.174 10.3373 183.77 13.2907 183.77 23.7296C183.77 31.8041 179.835 37.7115 173.039 37.7115C169.295 37.7115 167.13 36.2371 166.635 35.6421C166.139 35.0553 165.451 34.9529 165.451 35.6421V44.9999L156.883 45ZM91.3974 0H100.556V24.0266C100.556 28.1595 98.7814 36.8276 86.0804 36.8276C73.378 36.8276 72 28.7485 72 24.2222V19.7916H80.8629V24.1222C80.8629 26.7806 82.6359 29.2412 85.982 29.2412C89.3295 29.2412 91.3974 27.3711 91.3974 24.2222V0ZM119.709 20.3821C119.709 17.9177 118.333 15.5548 115.182 15.5548C112.13 15.5548 111.046 17.7191 111.046 20.3821H119.709ZM114.299 10.0417C121.491 10.0417 127.791 12.7979 127.791 25.501H110.757C110.757 29.5384 112.429 31.2128 115.383 31.2128C118.338 31.2128 119.322 28.8477 119.322 28.8477H127.694C127.694 32.4924 122.672 37.4159 115.087 37.3181C106.425 37.3181 102.19 30.9172 102.19 24.3193C102.19 17.7191 105.929 10.0417 114.299 10.0417ZM146.94 20.3821C146.94 17.9177 145.563 15.5548 142.412 15.5548C139.361 15.5548 138.274 17.7191 138.274 20.3821H146.94ZM141.53 10.0417C148.722 10.0417 155.019 12.7979 155.019 25.501H137.986C137.986 29.5384 139.66 31.2128 142.616 31.2128C145.568 31.2128 146.553 28.8477 146.553 28.8477H154.926C154.926 32.4924 149.902 37.4159 142.321 37.3181C133.653 37.3181 129.418 30.9172 129.418 24.3193C129.418 17.7191 133.162 10.0417 141.53 10.0417Z" fill="white"/>
</g>
<defs>
<clipPath id="clip0_1906_7083">
<rect width="256" height="45" fill="white"/>
</clipPath>
</defs>
</svg>
