<svg width="219" height="45" viewBox="0 0 219 45" fill="none" xmlns="http://www.w3.org/2000/svg">
<g clip-path="url(#clip0_2901_11134)">
<path fill-rule="evenodd" clip-rule="evenodd" d="M94.9055 22.007C97.367 25.5178 99.842 29.0191 102.33 32.5109C102.452 32.6689 102.501 33.2776 102.002 33.2776L96.7674 33.3142C96.2194 33.3142 95.696 32.8758 95.4284 32.5593L92.1663 28.5422L89.0868 24.7325L89.075 32.4862C89.075 32.815 88.7831 33.3018 88.442 33.3142L83.6221 33.3384C83.2809 33.3384 82.7941 32.8032 82.7941 32.4501V13.8386C82.7941 13.6441 81.9182 13.4979 81.93 12.7919C81.9419 12.074 82.2949 11.9278 82.6845 11.9278H88.3086C88.6128 11.9278 89.112 12.2324 89.112 12.7069L89.0878 19.6696L92.1672 15.6407L94.3822 12.7558C94.6986 12.3544 95.4289 11.8918 95.7943 11.8918L100.7 11.9283C101.211 11.9283 101.503 12.342 101.259 12.7074L94.9055 22.007ZM112.969 11.9288C113.395 11.9288 113.796 12.2329 113.796 12.7074V32.4871C113.796 32.9502 113.65 33.2786 113.103 33.2786L110.133 33.3028L108.137 33.3151C107.711 33.3151 107.406 32.9863 107.406 32.4871V13.7057C107.406 13.6934 106.615 13.4865 106.493 12.7321C106.603 12.3183 106.749 11.9288 107.406 11.9288H112.969ZM129.9 2.33688C144.568 6.01278 154.683 13.6815 154.682 22.5062C154.682 31.3313 144.567 38.9996 129.899 42.6755C123.984 44.1725 117.326 45 110.29 45H110.132C103.754 45 97.668 44.2944 92.1663 43.0403C76.7201 39.5106 65.9111 31.6236 65.9111 22.5062C65.9111 13.3892 76.7201 5.50175 92.1667 1.97152C97.6685 0.717908 103.755 0.0118637 110.133 0.0118637C110.193 0.0118637 110.242 0 110.291 0C117.327 0 123.984 0.839857 129.9 2.33688ZM129.9 37.7701C142.717 34.8245 151.445 29.0788 151.445 22.5062C151.445 15.9335 142.717 10.1883 129.9 7.24267C124.07 5.89179 117.387 5.125 110.291 5.125H110.133C103.706 5.13686 97.6078 5.78217 92.1667 6.91431C78.5459 9.75036 69.1491 15.6782 69.1491 22.5066C69.1491 29.3351 78.5459 35.2629 92.1667 38.099C97.6078 39.2311 103.706 39.8764 110.133 39.8764C110.193 39.8764 110.242 39.8883 110.291 39.8883C117.387 39.8883 124.07 39.1215 129.9 37.7701ZM133.734 12.7321L140.454 32.536C140.538 32.7794 140.222 33.3151 139.954 33.3151L135.353 33.2786C135.049 33.2786 134.477 32.8283 134.392 32.5484L130.289 19.9624C130.253 19.8405 130.071 19.7797 129.9 19.7797C129.791 19.7797 129.682 19.8286 129.645 19.9135C128.951 22.007 128.245 24.1005 127.539 26.1944L125.445 32.4748C125.287 32.9498 124.739 33.2781 124.35 33.2781L119.931 33.3147C119.542 33.3147 119.262 32.7306 119.371 32.4141L125.713 13.7057C125.774 13.5477 124.654 13.5838 124.666 12.5129C124.666 12.148 125.031 11.9288 125.299 11.9288H132.821C133.235 11.9288 133.552 12.3178 133.734 12.7321Z" fill="#FEFEFA"/>
</g>
<defs>
<clipPath id="clip0_2901_11134">
<rect width="217.771" height="45" fill="white" transform="translate(0.911133)"/>
</clipPath>
</defs>
</svg>
